#!OML:ASF F:\VICON\USERDATA\INSTALL\rory3\rory3.ASF
:FULLY-SPECIFIED
:DEGREES
94
root -1.0448935440650164 17.209425435738297 20.595372906409544 3.5814190404679564 -3.778429213164294 -5.745517037709047
lfemur -27.919732357528005 8.803490006325971 -8.435163286054285
ltibia 120.32874371735909
lfoot 18.82050076000737 -20.464722110249305
ltoes 11.489280608708391
rfemur -26.128404566500535 -0.16584179660512177 32.192781225439695
rtibia 29.636432679375652
rfoot -26.39060241253626 -17.817819282689562
rtoes -8.833050660470708
lowerback 1.0 -0.5363324334068844 3.6692908523159433
upperback 0.2942216041105255 0.3527599382444566 3.6411509457689286
thorax -8.28712721398661 0.17686816665260274 0.857270215388831
lowerneck -22.357078705679985 -4.014043409378874 -1.1659128111241002
upperneck 13.84333402921037 -3.487096192593635 1.1347028121374714
head 7.442049187693458 -2.3839979003715452 0.07692950773586771
lclavicle -3.913254782919747e-15 1.8377993052980846e-14
lhumerus -54.88647009175138 -0.6767549973337834 86.04744263147506
lradius 69.27720048833285
lwrist 32.904721356123375
lhand -41.54228023015083 14.614210357425216
lfingers nan
lthumb -14.552435790427896 45.881023004334736
rclavicle 1.7551407794600563e-15 2.051842396098843e-14
rhumerus -34.91986433878941 7.504181817958733 -93.34686116629389
rradius 103.40226722875144
rwrist -22.436330640567295
rhand -19.77551098799256 1.0
rfingers nan
rthumb 6.454904028802211 8.676361914010444
95
root -1.044453787165364 17.21873064392382 21.020969076323507 3.592564965258067 -3.6656489728797736 -5.469366591686946
lfemur -30.103693216769656 9.517149168456474 -8.54742884969416
ltibia 121.09385690345194
lfoot 16.24896683345326 -19.798395952391616
ltoes 6.247204838807971
rfemur -24.40726076853937 -0.35352028115837353 32.017397476491546
rtibia 28.842941383504517
rfoot -26.82925986153348 -18.484916107901725
rtoes -12.705903965422976
lowerback 1.0 -0.4369801917236553 3.2586556977167764
upperback 0.3060996558644656 0.49426983916067724 3.573822316759682
thorax -8.053502051350376 0.20724439290186425 0.9675152666987621
lowerneck -22.486050969939242 -4.088668841891193 -1.4308639272022934
upperneck 14.110657932647548 -3.6516990959757063 1.3547641731299827
head 7.55171137934089 -2.435600637309137 0.1518307376053326
lclavicle -3.652576987850021e-14 -3.731146679344168e-15
lhumerus -56.01559300863372 -0.5990171415203234 85.98701617185556
lradius 67.46771622966259
lwrist 32.513338224613186
lhand -41.917349784850245 16.188812557551174
lfingers nan
lthumb -14.932833718547322 47.41293794555006
rclavicle -3.0693556919757816e-14 -1.576454272097502e-15
rhumerus -33.32054474151339 8.444023222300077 -93.25565309501658
rradius 105.46155771476359
rwrist -25.98380326818286
rhand -19.641874184019127 1.0
rfingers nan
rthumb 6.5959285320400465 8.066395363416504
96
root -1.0330716316511035 17.23320923065812 21.360646578696805 3.614771289020132 -3.0516659848755245 -5.287821529350726
lfemur -32.79382625013703 9.591529697275693 -8.734596982392048
ltibia 121.51774742614703
lfoot 14.516024791775303 -18.757067196918385
ltoes 3.705361302045148
rfemur -22.623253454711715 -1.080511575377257 32.00731859189595
rtibia 27.662497028931575
rfoot -27.3191444233263 -19.008639613199442
rtoes -16.22960026852613
lowerback 1.0 -0.5270310170765553 3.303972163859627
upperback 0.13843866533125454 0.4655543088669435 3.4734579364255227
thorax -8.246710219443123 0.14245576467272258 0.897939324860844
lowerneck -22.68571823124823 -4.241069261279158 -1.4371965854709758
upperneck 14.478595658677845 -3.9384654823740877 1.4973893853340268
head 7.693959297140089 -2.5526775140513123 0.16902953585962188
lclavicle -1.978711448984501e-15 -1.2176390946183887e-14
lhumerus -57.14986840566087 -0.7707677817248078 85.9182387761085
lradius 66.4367914847382
lwrist 32.427030979431834
lhand -42.929722840308166 19.31451827015679
lfingers nan
lthumb -15.936475246317919 50.35546462266997
rclavicle 4.057526568418593e-15 -1.0007421412794627e-14
rhumerus -31.901595481691217 9.180609834368989 -93.31651620777339
rradius 107.91261449822329
rwrist -29.430753489828337
rhand -19.50405971613818 1.0
rfingers nan
rthumb 6.742401040137461 7.269668529441981
97
root -1.0096945377099622 17.271366220412812 21.463616423456777 3.7593968026062203 -2.584588202216932 -5.267202039197439
lfemur -35.323395772760115 9.717490431161746 -8.994887749666907
ltibia 121.41851005478034
lfoot 13.281031480764593 -17.9418931203255
ltoes 2.9050239861332354
rfemur -20.968254282805525 -1.7779499335970965 31.940708349640698
rtibia 26.27686310348171
rfoot -27.903383142950872 -18.86598557619806
rtoes -19.290357748258536
lowerback 1.0 -0.6199962158810906 3.541709198913443
upperback -0.1759256914085402 0.43159586018699636 3.2929548548879577
thorax -8.4908980069861 0.09204678266040145 0.7046115767937697
lowerneck -22.3852520781258 -4.356771430648827 -1.2751257120965405
upperneck 14.891064723630585 -4.166353824705428 1.5284227306165603
head 7.786948135195943 -2.675397436082393 0.14159123087997083
lclavicle 3.6426253548562465e-15 -1.4222919485623098e-15
lhumerus -58.25044789395929 -0.9354845192948718 85.81128332337815
lradius 66.16370155024252
lwrist 32.378070320764564
lhand -44.200535863367904 27.631675550358178
lfingers nan
lthumb -17.179105837040563 58.203655913399956
rclavicle 1.0143587479144607e-14 1.2120798776387178e-15
rhumerus -31.12340140467511 9.813260425019184 -93.61945709276765
rradius 110.97532504556874
rwrist -32.09837116534328
rhand -19.036881651704853 1.0
rfingers nan
rthumb 7.20376322435695 5.848617612862443
98
root -0.9918904897357259 17.334830970907596 21.773445423388942 3.8538815590735576 -2.3124976015195573 -5.346458213613231
lfemur -37.44346980749043 9.945175141771351 -9.333167285106066
ltibia 120.72484147060985
lfoot 11.142553700196547 -16.9951198627215
ltoes 1.987147968425699
rfemur -19.220564673347702 -2.2479355376611614 31.8670788081412
rtibia 24.759959666300993
rfoot -28.056677286661028 -18.594284272312812
rtoes -24.72592775968564
lowerback 1.0 -0.6269058559723195 3.640606439691007
upperback -0.3335503565749564 0.45371915575390986 3.161429176819817
thorax -8.535234053140755 0.09768900841501793 0.5888600186056172
lowerneck -22.354680850013366 -4.491404772222401 -1.2737114795003712
upperneck 15.222571249405082 -4.387190644869444 1.6960492074146376
head 7.891136502558326 -2.7810189968183145 0.17166664358525263
lclavicle 3.5053128112630895e-14 4.1996175902894805e-14
lhumerus -59.16365617903401 -1.1361556326090927 85.77189711454123
lradius 66.60047176557143
lwrist 32.48530745021637
lhand -43.39696936952627 33.36333792951987
lfingers nan
lthumb -16.359878365431154 63.38637835100371
rclavicle 4.2049653341901966e-14 4.495334514278634e-14
rhumerus -30.902466921764397 10.37142325032995 -93.94208487588074
rradius 114.32091451369132
rwrist -33.67609541341559
rhand -18.68262537494101 1.0
rfingers nan
rthumb 7.548455056033289 5.9004565617687685
99
root -0.9939543438961825 17.39265623229371 22.011173712516886 3.859657165299399 -2.2599588259386674 -5.784333491484017
lfemur -39.32894641866332 10.484718196596319 -9.143548199799763
ltibia 119.76928831774131
lfoot 8.855642115111523 -15.661055717191033
ltoes 1.5190978215116786
rfemur -17.311965912818174 -2.2857527906435817 32.30625562347128
rtibia 23.272874728721703
rfoot -27.40842134389515 -18.667355364457418
rtoes -30.05587971343137
lowerback 1.0 -0.5400450003967969 3.8757029861130814
upperback -0.3639997050657527 0.6076505554739055 3.1408884617676076
thorax -8.490911056059993 0.1750831920152906 0.47013061273066215
lowerneck -22.43555228572016 -4.697954848340717 -1.248184289950529
upperneck 15.257443057977047 -4.7180227026547215 1.8981914568524478
head 7.921937222109001 -2.924966919822677 0.20590229748993
lclavicle -2.3383300626039294e-14 -2.573615345261999e-15
lhumerus -59.85913171612914 -1.3988823229693876 85.81461626663213
lradius 67.36124923301824
lwrist 32.53855170304474
lhand -42.15637508557141 29.449747007816665
lfingers nan
lthumb -15.08681678171957 59.25152333863993
rclavicle -1.6363422819969883e-14 3.0466622048080566e-16
rhumerus -28.49940936074357 11.743785166234089 -93.59953784110486
rradius 115.70693868461575
rwrist -35.398911609626246
rhand -18.92307205655101 1.0
rfingers nan
rthumb 7.330246586738718 7.45544057708947
100
root -0.9881043285735407 17.439929019027474 22.034371214384283 3.8634998100713456 -2.165452457867601 -6.025045997701874
lfemur -40.79846894685619 10.88450085350378 -9.22899689691996
ltibia 118.48180353652634
lfoot 7.014227367216852 -14.244111111491389
ltoes 0.500899888036276
rfemur -15.484426670395015 -2.169158874518732 32.64090244176781
rtibia 21.820553316773633
rfoot -25.803627439998877 -18.231621109656572
rtoes -30.285782168800235
lowerback 1.0 -0.4470803499470182 4.16964311689579
upperback -0.4514614050671708 0.7765573927679827 3.0206141376352837
thorax -8.528037961769249 0.2504167687098615 0.2297653577019785
lowerneck -22.308024053961198 -4.9132088646949565 -1.1703709882481181
upperneck 15.183456258783256 -5.092890345528193 2.152420614474228
head 7.900648882205338 -3.079429302576048 0.24504386033990128
lclavicle 5.460058241880307e-14 1.247571310990872e-14
lhumerus -60.50984130919469 -1.6402153145286196 85.67355649249212
lradius 68.2664183523056
lwrist 32.372378674477844
lhand -37.742693104309495 14.051468641764226
lfingers nan
lthumb -10.80049673259824 44.18089194861747
rclavicle 5.996326515895443e-14 1.4548212175111465e-14
rhumerus -28.40743445671409 11.8211459593523 -93.9717752438407
rradius 119.05440239964656
rwrist -34.4435367643404
rhand -18.193659499053027 1.0
rfingers nan
rthumb 8.026919071595925 8.494889337904201
101
root -0.9460526301328989 17.512829528762236 22.12009205481303 4.084046793432563 -1.80564461336588 -5.415793566967563
lfemur -42.57638926915695 10.570872574923719 -10.702757310288446
ltibia 116.46626800315234
lfoot 5.574634634253677 -12.191061896602978
ltoes 0.364272567651037
rfemur -13.913989323755168 -2.4282084671147355 31.75524630289369
rtibia 20.374041691072932
rfoot -23.820832029316797 -16.629380299408233
rtoes -29.60122928771823
lowerback 1.0 -0.3763323558793572 3.9700838760474264
upperback -0.7043393466483666 0.8019483586386581 2.611293615846759
thorax -8.476878835629249 0.26728920287456215 0.03775194296064997
lowerneck -22.744206976663413 -5.15811098923316 -1.202851783616961
upperneck 15.535147924029745 -5.504113332542488 2.337213709256555
head 8.076802230862398 -3.2441915993275985 0.271405297451526
lclavicle -3.642063604670497e-14 -5.419432308391166e-14
lhumerus -60.93384342532536 -1.712788494530895 85.5601331711405
lradius 69.19162860406162
lwrist 32.18729199555091
lhand -29.409763037137633 -3.527254777534842
lfingers nan
lthumb -2.849581153305163 26.587239188980153
rclavicle -3.134732690696234e-14 -5.131421718445803e-14
rhumerus -27.643708598777327 12.585200463672912 -93.86668561263889
rradius 121.92399599760391
rwrist -33.90848229252617
rhand -18.214419392471143 1.0
rfingers nan
rthumb 7.9964573034077775 7.4834778282115355
